<?xml version="1.0" encoding="UTF-8" standalone="no"?>
<svg
   xmlns:dc="http://purl.org/dc/elements/1.1/"
   xmlns:cc="http://creativecommons.org/ns#"
   xmlns:rdf="http://www.w3.org/1999/02/22-rdf-syntax-ns#"
   xmlns:svg="http://www.w3.org/2000/svg"
   xmlns="http://www.w3.org/2000/svg"
   xmlns:sodipodi="http://sodipodi.sourceforge.net/DTD/sodipodi-0.dtd"
   xmlns:inkscape="http://www.inkscape.org/namespaces/inkscape"
   width="50"
   height="50"
   viewBox="0 0 13.229167 13.229167"
   version="1.1"
   id="svg1042"
   inkscape:version="1.0.2-2 (e86c870879, 2021-01-15)"
   sodipodi:docname="Bee.svg"
   inkscape:export-filename="C:\Users\mrato\OneDrive\Escritorio\Inkscape Desings\Bee.png"
   inkscape:export-xdpi="96"
   inkscape:export-ydpi="96">
  <defs
     id="defs1036" />
  <sodipodi:namedview
     id="base"
     pagecolor="#ffffff"
     bordercolor="#666666"
     borderopacity="1.0"
     inkscape:pageopacity="0.0"
     inkscape:pageshadow="2"
     inkscape:zoom="7.9195959"
     inkscape:cx="21.650927"
     inkscape:cy="37.510513"
     inkscape:document-units="px"
     inkscape:current-layer="layer1"
     inkscape:document-rotation="0"
     showgrid="false"
     units="px"
     inkscape:window-width="1920"
     inkscape:window-height="991"
     inkscape:window-x="-9"
     inkscape:window-y="-9"
     inkscape:window-maximized="1" />
  <metadata
     id="metadata1039">
    <rdf:RDF>
      <cc:Work
         rdf:about="">
        <dc:format>image/svg+xml</dc:format>
        <dc:type
           rdf:resource="http://purl.org/dc/dcmitype/StillImage" />
        <dc:title />
      </cc:Work>
    </rdf:RDF>
  </metadata>
  <g
     inkscape:label="Capa 1"
     inkscape:groupmode="layer"
     id="layer1">
    <g
       id="g1130"
       transform="matrix(1.5610681,0,0,1.5610681,-62.243473,-16.560906)">
      <path
         style="fill:#d4e9f6;fill-opacity:1;stroke:#a4d0ed;stroke-width:0.132292;stroke-linecap:butt;stroke-linejoin:miter;stroke-miterlimit:4;stroke-dasharray:none;stroke-opacity:1"
         d="m 43.286937,13.844979 c 0,0 -1.082554,-0.03407 -1.389816,-0.406302 -0.227113,-0.275132 -0.310772,-0.777574 -0.100222,-1.065579 0.172288,-0.235669 0.587008,-0.300483 0.855724,-0.186401 0.193804,0.08228 0.331949,0.537381 0.331949,0.537381 0,0 -0.312774,-0.6259 -0.193179,-0.913097 0.106728,-0.256301 0.424923,-0.412664 0.699805,-0.451666 0.148951,-0.02113 0.338668,0.01186 0.432319,0.129601 0.414929,0.521651 0.128562,1.995506 0.128562,1.995506 z"
         id="path1044-6"
         sodipodi:nodetypes="caaacaaacc" />
      <ellipse
         style="fill:#ffe900;fill-opacity:1;fill-rule:evenodd;stroke:#0195ff;stroke-width:0;stroke-linejoin:round;stroke-miterlimit:4;stroke-dasharray:none;stroke-opacity:1"
         id="ellipse1021"
         cx="43.573566"
         cy="15.709636"
         rx="3.5317149"
         ry="2.5749626" />
      <ellipse
         style="fill:#000000;fill-opacity:1;fill-rule:evenodd;stroke:#0195ff;stroke-width:0;stroke-linejoin:round;stroke-miterlimit:4;stroke-dasharray:none;stroke-opacity:1"
         id="ellipse1023"
         cx="43.20031"
         cy="15.709636"
         rx="2.7710381"
         ry="2.5749626" />
      <ellipse
         style="fill:#f2dd00;fill-opacity:1;fill-rule:evenodd;stroke:#0195ff;stroke-width:0;stroke-linejoin:round;stroke-miterlimit:4;stroke-dasharray:none;stroke-opacity:1"
         id="path999"
         cx="42.723118"
         cy="15.709636"
         rx="2.657645"
         ry="2.5749626" />
      <ellipse
         style="fill:#000000;fill-opacity:1;fill-rule:evenodd;stroke:#0195ff;stroke-width:0;stroke-linejoin:round;stroke-miterlimit:4;stroke-dasharray:none;stroke-opacity:1"
         id="ellipse1027"
         cx="43.216846"
         cy="15.709636"
         rx="2.7545016"
         ry="2.5749626" />
      <ellipse
         style="fill:#ffe900;fill-opacity:1;fill-rule:evenodd;stroke:#ffe900;stroke-width:0;stroke-linejoin:round;stroke-miterlimit:4;stroke-dasharray:none;stroke-opacity:1"
         id="ellipse1029"
         cx="42.723118"
         cy="15.733259"
         rx="2.657645"
         ry="2.5749626" />
      <path
         id="ellipse1034"
         style="fill:#000000;fill-opacity:1;fill-rule:evenodd;stroke:#0195ff;stroke-width:0;stroke-linejoin:round;stroke-miterlimit:4;stroke-dasharray:none;stroke-opacity:1"
         d="m 44.246764,13.134723 a 2.9529389,2.5483816 0 0 0 -0.419097,0.02609 2.6576448,2.5483816 0 0 1 0.124023,-0.0026 2.6576448,2.5483816 0 0 1 2.657721,2.548454 2.6576448,2.5483816 0 0 1 -2.292368,2.523906 2.9529389,2.5483816 0 0 0 2.882511,-2.547432 2.9529389,2.5483816 0 0 0 -2.95279,-2.548455 z m -2.9068,2.100443 a 2.9529389,2.5483816 0 0 0 -0.04599,0.448012 2.9529389,2.5483816 0 0 0 0,0.02352 2.6576448,2.5483816 0 0 1 0.04599,-0.471539 z" />
      <path
         style="fill:#d4e9f6;fill-opacity:1;stroke:#a4d0ed;stroke-width:0.132292;stroke-linecap:butt;stroke-linejoin:miter;stroke-miterlimit:4;stroke-dasharray:none;stroke-opacity:1"
         d="m 45.593378,13.890624 c 0,0 -0.149305,-1.055993 0.14174,-1.441034 0.285689,-0.377955 0.917043,-0.764124 1.322916,-0.519717 0.4209,0.253456 0.367419,1.016807 0.165365,1.464658 -0.07906,0.175232 -0.472469,0.330729 -0.472469,0.330729 0,0 0.503077,-0.281542 0.779576,-0.283482 0.191752,-0.0013 0.440575,0.02709 0.54334,0.188988 0.08062,0.127015 0.0511,0.335001 -0.04725,0.448847 -0.435733,0.504403 -1.937128,0.496093 -1.937128,0.496093 z"
         id="path1044"
         sodipodi:nodetypes="caaacaaacc" />
      <ellipse
         style="fill:#000000;fill-opacity:1;fill-rule:evenodd;stroke:#000000;stroke-width:0;stroke-linejoin:round;stroke-miterlimit:4;stroke-dasharray:none;stroke-opacity:1"
         id="path1070-7"
         cx="41.263477"
         cy="15.193194"
         rx="0.71288049"
         ry="0.67951375" />
      <ellipse
         style="fill:#000000;fill-opacity:1;fill-rule:evenodd;stroke:#000000;stroke-width:0;stroke-linejoin:round;stroke-miterlimit:4;stroke-dasharray:none;stroke-opacity:1"
         id="ellipse1101"
         cx="43.046215"
         cy="15.193194"
         rx="0.71288049"
         ry="0.67951375" />
      <ellipse
         style="fill:#ffffff;fill-opacity:1;fill-rule:evenodd;stroke:#000000;stroke-width:0;stroke-linejoin:round;stroke-miterlimit:4;stroke-dasharray:none;stroke-opacity:1"
         id="ellipse1103"
         cx="41.035461"
         cy="15.000259"
         rx="0.32116386"
         ry="0.30613163" />
      <ellipse
         style="fill:#ffffff;fill-opacity:1;fill-rule:evenodd;stroke:#000000;stroke-width:0;stroke-linejoin:round;stroke-miterlimit:4;stroke-dasharray:none;stroke-opacity:1"
         id="ellipse1105"
         cx="42.786789"
         cy="15.000259"
         rx="0.32116386"
         ry="0.30613163" />
      <path
         style="fill:#000000;fill-opacity:1;stroke:#000000;stroke-width:0;stroke-linecap:butt;stroke-linejoin:miter;stroke-miterlimit:4;stroke-dasharray:none;stroke-opacity:1"
         d="m 47.169731,16.066239 0.362484,-0.596345 -0.53788,-0.549573 z"
         id="path1107"
         sodipodi:nodetypes="cccc" />
      <ellipse
         style="fill:#ff90ff;fill-opacity:1;fill-rule:evenodd;stroke:#000000;stroke-width:0;stroke-linejoin:round;stroke-miterlimit:4;stroke-dasharray:none;stroke-opacity:1"
         id="ellipse1111"
         cx="40.565746"
         cy="16.135771"
         rx="0.28951615"
         ry="0.27596518" />
      <ellipse
         style="fill:#ff90ff;fill-opacity:1;fill-rule:evenodd;stroke:#000000;stroke-width:0;stroke-linejoin:round;stroke-miterlimit:4;stroke-dasharray:none;stroke-opacity:1"
         id="ellipse1113"
         cx="43.945766"
         cy="16.135771"
         rx="0.28951615"
         ry="0.27596518" />
    </g>
  </g>
</svg>
