<?xml version="1.0" encoding="UTF-8" standalone="no"?>
<svg
   xmlns:dc="http://purl.org/dc/elements/1.1/"
   xmlns:cc="http://creativecommons.org/ns#"
   xmlns:rdf="http://www.w3.org/1999/02/22-rdf-syntax-ns#"
   xmlns:svg="http://www.w3.org/2000/svg"
   xmlns="http://www.w3.org/2000/svg"
   xmlns:sodipodi="http://sodipodi.sourceforge.net/DTD/sodipodi-0.dtd"
   xmlns:inkscape="http://www.inkscape.org/namespaces/inkscape"
   width="280"
   height="100"
   viewBox="0 0 74.083331 26.458334"
   version="1.1"
   id="svg8"
   inkscape:version="1.0.2-2 (e86c870879, 2021-01-15)"
   sodipodi:docname="BeesMathLogo.svg"
   inkscape:export-filename="C:\Users\mrato\OneDrive\Escritorio\BeesMath\css\BeesMathOficialLogo.png"
   inkscape:export-xdpi="96"
   inkscape:export-ydpi="96">
  <defs
     id="defs2" />
  <sodipodi:namedview
     id="base"
     pagecolor="#ffffff"
     bordercolor="#666666"
     borderopacity="1.0"
     inkscape:pageopacity="0.0"
     inkscape:pageshadow="2"
     inkscape:zoom="2"
     inkscape:cx="49.215969"
     inkscape:cy="103.74171"
     inkscape:document-units="mm"
     inkscape:current-layer="text997"
     inkscape:document-rotation="0"
     showgrid="false"
     units="px"
     inkscape:window-width="1920"
     inkscape:window-height="991"
     inkscape:window-x="-9"
     inkscape:window-y="-9"
     inkscape:window-maximized="1" />
  <metadata
     id="metadata5">
    <rdf:RDF>
      <cc:Work
         rdf:about="">
        <dc:format>image/svg+xml</dc:format>
        <dc:type
           rdf:resource="http://purl.org/dc/dcmitype/StillImage" />
        <dc:title></dc:title>
      </cc:Work>
    </rdf:RDF>
  </metadata>
  <g
     inkscape:label="Capa 1"
     inkscape:groupmode="layer"
     id="layer1">
    <g
       id="g45">
      <g
         aria-label="math"
         id="text997"
         style="font-size:7.9375px;line-height:1.25;font-family:sans-serif;fill:#868686;fill-opacity:1;stroke-width:0.264583">
        <path
           d="m 50.537228,22.400998 v 1.406891 q 0,0.333313 -0.151154,0.499969 -0.151153,0.166657 -0.3992,0.166657 -0.240296,0 -0.391449,-0.166657 -0.147278,-0.166656 -0.147278,-0.499969 v -1.685944 q 0,-0.399201 -0.02713,-0.620117 -0.02713,-0.220917 -0.147278,-0.360443 -0.120148,-0.143402 -0.379822,-0.143402 -0.519348,0 -0.686005,0.356567 -0.16278,0.356567 -0.16278,1.023193 v 1.430146 q 0,0.329437 -0.151154,0.499969 -0.147278,0.166657 -0.391449,0.166657 -0.240295,0 -0.395325,-0.166657 -0.151153,-0.170532 -0.151153,-0.499969 v -3.026947 q 0,-0.298432 0.135651,-0.453461 0.139526,-0.155029 0.364318,-0.155029 0.217041,0 0.360443,0.147277 0.147278,0.143402 0.147278,0.399201 v 0.100769 q 0.275177,-0.329437 0.589112,-0.484467 0.313934,-0.155029 0.697631,-0.155029 0.399201,0 0.686005,0.158905 0.286804,0.158905 0.472839,0.480591 0.267426,-0.325562 0.573609,-0.480591 0.306183,-0.158905 0.678253,-0.158905 0.434082,0 0.748016,0.170532 0.313935,0.170532 0.468964,0.488343 0.135651,0.286804 0.135651,0.903045 v 2.065766 q 0,0.333313 -0.151154,0.499969 -0.151153,0.166657 -0.3992,0.166657 -0.240296,0 -0.395325,-0.166657 -0.151154,-0.170532 -0.151154,-0.499969 v -1.778962 q 0,-0.341064 -0.03101,-0.546478 -0.02713,-0.205414 -0.15503,-0.34494 -0.127899,-0.139526 -0.387573,-0.139526 -0.20929,0 -0.3992,0.124023 -0.186036,0.124023 -0.29068,0.333313 -0.116272,0.267425 -0.116272,0.945679 z"
           style="font-style:normal;font-variant:normal;font-weight:normal;font-stretch:normal;font-size:7.9375px;font-family:'Arial Rounded MT Bold';-inkscape-font-specification:'Arial Rounded MT Bold, Normal';font-variant-ligatures:normal;font-variant-caps:normal;font-variant-numeric:normal;font-variant-east-asian:normal;fill:#bac5da;fill-opacity:1;stroke-width:0.264583"
           id="path918" />
        <path
           d="m 56.715145,23.877652 q -0.383697,0.298431 -0.744141,0.449585 -0.356567,0.147278 -0.802276,0.147278 -0.406952,0 -0.717011,-0.158906 -0.306182,-0.16278 -0.472839,-0.437957 -0.166656,-0.275177 -0.166656,-0.596863 0,-0.434082 0.275177,-0.740265 0.275177,-0.306183 0.755767,-0.410828 0.100769,-0.02325 0.49997,-0.104644 0.3992,-0.08139 0.682129,-0.147278 0.286804,-0.06976 0.620117,-0.166657 -0.01938,-0.418579 -0.170532,-0.612365 -0.147278,-0.197663 -0.616242,-0.197663 -0.403076,0 -0.60849,0.112396 -0.201538,0.112397 -0.348816,0.337189 -0.143402,0.224793 -0.205413,0.298432 -0.05814,0.06976 -0.255799,0.06976 -0.178284,0 -0.310058,-0.112396 -0.1279,-0.116272 -0.1279,-0.294556 0,-0.279053 0.197663,-0.542603 0.197662,-0.263549 0.616241,-0.434082 0.418579,-0.170532 1.042572,-0.170532 0.697632,0 1.096833,0.166657 0.3992,0.16278 0.561981,0.519348 0.166656,0.356567 0.166656,0.945678 0,0.372071 -0.0039,0.631745 0,0.259674 -0.0039,0.577484 0,0.298431 0.09689,0.623993 0.100769,0.321686 0.100769,0.414703 0,0.162781 -0.155029,0.298432 -0.151154,0.131775 -0.34494,0.131775 -0.162781,0 -0.321686,-0.151154 -0.158905,-0.155029 -0.337189,-0.445709 z m -0.06976,-1.530915 q -0.232544,0.08527 -0.678253,0.18216 -0.441834,0.09302 -0.612366,0.139526 -0.170532,0.04263 -0.325561,0.174408 -0.15503,0.127899 -0.15503,0.360443 0,0.240296 0.18216,0.410828 0.182159,0.166656 0.476715,0.166656 0.313934,0 0.577484,-0.13565 0.267425,-0.139527 0.391449,-0.356568 0.143402,-0.240295 0.143402,-0.790649 z"
           style="font-style:normal;font-variant:normal;font-weight:normal;font-stretch:normal;font-size:7.9375px;font-family:'Arial Rounded MT Bold';-inkscape-font-specification:'Arial Rounded MT Bold, Normal';font-variant-ligatures:normal;font-variant-caps:normal;font-variant-numeric:normal;font-variant-east-asian:normal;fill:#bac5da;fill-opacity:1;stroke-width:0.264583"
           id="path920" />
        <path
           d="m 58.61813,20.265469 h 0.116272 v -0.63562 q 0,-0.255798 0.01163,-0.3992 0.0155,-0.147278 0.07751,-0.251923 0.06201,-0.108521 0.178283,-0.174408 0.116272,-0.06976 0.259674,-0.06976 0.201538,0 0.364319,0.151153 0.108521,0.100769 0.135651,0.248047 0.03101,0.143402 0.03101,0.410828 v 0.720886 h 0.387573 q 0.224792,0 0.341064,0.108521 0.120148,0.104644 0.120148,0.271301 0,0.213165 -0.170532,0.298431 -0.166657,0.08527 -0.480591,0.08527 h -0.197662 v 1.945618 q 0,0.248047 0.0155,0.383698 0.01938,0.131774 0.09302,0.217041 0.07752,0.08139 0.248047,0.08139 0.09302,0 0.251923,-0.03101 0.158905,-0.03488 0.248047,-0.03488 0.127899,0 0.228668,0.104644 0.104645,0.100769 0.104645,0.251923 0,0.255798 -0.279053,0.391449 -0.279053,0.135651 -0.802277,0.135651 -0.496094,0 -0.751892,-0.166657 -0.255798,-0.166656 -0.337189,-0.461212 -0.07751,-0.294556 -0.07751,-0.786774 v -2.030884 h -0.139527 q -0.228668,0 -0.348816,-0.10852 -0.120147,-0.108521 -0.120147,-0.275177 0,-0.166657 0.124023,-0.271301 0.127899,-0.108521 0.368195,-0.108521 z"
           style="font-style:normal;font-variant:normal;font-weight:normal;font-stretch:normal;font-size:7.9375px;font-family:'Arial Rounded MT Bold';-inkscape-font-specification:'Arial Rounded MT Bold, Normal';font-variant-ligatures:normal;font-variant-caps:normal;font-variant-numeric:normal;font-variant-east-asian:normal;fill:#bac5da;fill-opacity:1;stroke-width:0.264583"
           id="path922" />
        <path
           d="m 62.40472,19.242276 v 1.569671 q 0.201538,-0.232544 0.391449,-0.368194 0.193787,-0.135651 0.426331,-0.201538 0.232544,-0.06976 0.499969,-0.06976 0.403077,0 0.713135,0.170532 0.313934,0.170532 0.492218,0.496094 0.112396,0.18991 0.151154,0.42633 0.03876,0.232544 0.03876,0.538727 v 2.027008 q 0,0.31781 -0.147278,0.480591 -0.143402,0.162781 -0.383697,0.162781 -0.523224,0 -0.523224,-0.643372 v -1.786713 q 0,-0.507721 -0.151154,-0.779022 -0.151153,-0.275177 -0.573608,-0.275177 -0.282929,0 -0.511597,0.162781 -0.224792,0.158905 -0.337189,0.437958 -0.08527,0.236419 -0.08527,0.841034 v 1.399139 q 0,0.313934 -0.143402,0.480591 -0.139526,0.162781 -0.391449,0.162781 -0.523224,0 -0.523224,-0.643372 v -4.588867 q 0,-0.321686 0.135651,-0.480591 0.139526,-0.162781 0.387573,-0.162781 0.251923,0 0.391449,0.162781 0.143402,0.162781 0.143402,0.480591 z"
           style="font-style:normal;font-variant:normal;font-weight:normal;font-stretch:normal;font-size:7.9375px;font-family:'Arial Rounded MT Bold';-inkscape-font-specification:'Arial Rounded MT Bold, Normal';font-variant-ligatures:normal;font-variant-caps:normal;font-variant-numeric:normal;font-variant-east-asian:normal;fill:#bac5da;fill-opacity:1;stroke-width:0.264583"
           id="path924" />
      </g>
      <g
         aria-label="S"
         id="text835"
         style="font-style:normal;font-weight:normal;font-size:15.875px;line-height:1.25;font-family:sans-serif;fill:#e50d0d;fill-opacity:1;stroke:none;stroke-width:0.79375;stroke-miterlimit:4;stroke-dasharray:none"
         inkscape:label="S"
         transform="translate(0,-13.236999)">
        <path
           d="m 53.621434,25.493623 q 0,1.288684 -0.668566,2.315756 -0.658876,1.027071 -1.937871,1.608432 -1.278995,0.581362 -3.032768,0.581362 -2.10259,0 -3.468789,-0.794527 -0.968936,-0.571672 -1.579365,-1.521229 -0.60074,-0.959246 -0.60074,-1.860356 0,-0.523225 0.358506,-0.891421 0.368195,-0.377885 0.930178,-0.377885 0.4554,0 0.765459,0.290681 0.319749,0.29068 0.542604,0.862352 0.271302,0.678255 0.581361,1.133655 0.319749,0.4554 0.891421,0.75577 0.571672,0.29068 1.50185,0.29068 1.278995,0 2.073522,-0.59105 0.804216,-0.60074 0.804216,-1.492161 0,-0.707323 -0.43602,-1.143344 -0.426332,-0.44571 -1.114276,-0.678255 -0.678255,-0.232544 -1.821599,-0.494157 -1.530918,-0.358506 -2.567679,-0.833284 -1.027072,-0.484468 -1.637501,-1.308063 -0.60074,-0.833285 -0.60074,-2.063833 0,-1.172412 0.639497,-2.083211 0.639498,-0.9108 1.850667,-1.395268 1.211169,-0.494157 2.84867,-0.494157 1.308063,0 2.25762,0.329438 0.959246,0.319749 1.589054,0.862353 0.629809,0.532914 0.920489,1.123965 0.290681,0.591051 0.290681,1.153033 0,0.513536 -0.368196,0.930179 -0.358506,0.406952 -0.90111,0.406952 -0.494157,0 -0.755769,-0.242233 -0.251924,-0.251924 -0.552294,-0.813906 -0.387574,-0.804217 -0.930178,-1.249927 -0.542604,-0.4554 -1.744084,-0.4554 -1.114276,0 -1.80222,0.494157 -0.678255,0.484468 -0.678255,1.172412 0,0.426332 0.232545,0.736391 0.232544,0.31006 0.639497,0.532915 0.406953,0.222855 0.823596,0.348817 0.416642,0.125961 1.375888,0.368195 1.20148,0.280991 2.170416,0.620119 0.978624,0.339127 1.656879,0.823595 0.687945,0.484468 1.065829,1.230548 0.387575,0.736391 0.387575,1.81191 z"
           style="font-size:19.8438px;fill:#0095ff;fill-opacity:1;stroke:#0195ff;stroke-opacity:1"
           id="path915" />
      </g>
      <path
         id="text59"
         style="font-style:normal;font-weight:normal;font-size:15.875px;line-height:1.25;font-family:sans-serif;fill:#e50d0d;fill-opacity:1;stroke:none;stroke-width:0.79375;stroke-miterlimit:4;stroke-dasharray:none"
         inkscape:label="B"
         d="m 3.7672118,2.3155396 c -0.613659,0 -1.0596245,0.1387504 -1.337386,0.4165121 C 2.1585239,3.0033536 2.0231323,3.4521613 2.0231323,4.0787393 V 14.75664 c 0,0.613661 0.1325494,1.062468 0.3973918,1.346689 0.271302,0.277762 0.7201094,0.416512 1.3466877,0.416512 h 4.3408203 c 0.7493103,0 1.4048223,-0.0354 1.9668049,-0.106455 0.561983,-0.07752 1.059624,-0.206705 1.492415,-0.387572 0.691174,-0.303599 1.239976,-0.772044 1.646928,-1.405083 0.406953,-0.639498 0.610816,-1.356246 0.610816,-2.150772 0,-1.718246 -0.93353,-2.8747591 -2.800346,-3.4690395 1.421105,-0.658876 2.131653,-1.6986006 2.131653,-3.1197063 0,-0.4134122 -0.06795,-0.8043425 -0.203605,-1.172538 C 12.817047,4.3340201 12.619902,3.9947661 12.361519,3.6911663 12.103136,3.3811069 11.805998,3.1260848 11.470101,2.9258383 11.076067,2.6868341 10.630618,2.5250877 10.133231,2.4411132 9.6358447,2.357139 9.0477696,2.3155396 8.3695147,2.3155396 Z m 1.1337811,2.1605917 h 2.334741 c 1.0464503,0 1.8249519,0.1196303 2.335258,0.3586342 0.5103061,0.2325447 0.7658451,0.7071903 0.7658451,1.4242026 0,0.3358976 -0.08087,0.6392368 -0.242363,0.9105387 C 9.887768,7.5506213 9.5872709,7.8090023 9.1932373,7.9446534 8.8056629,8.0803042 8.2535031,8.1482585 7.5364908,8.1482585 H 4.9009929 Z m 0,5.7360837 h 2.9936157 c 1.0012333,0 1.7538967,0.16123 2.2577434,0.484208 0.503846,0.322979 0.756026,0.8431 0.756026,1.560112 0,1.401727 -0.9722873,2.102714 -2.9166179,2.102714 H 4.9009929 Z" />
      <g
         aria-label="E"
         id="text77"
         style="font-style:normal;font-weight:normal;font-size:15.875px;line-height:1.25;font-family:sans-serif;fill:#e50d0d;fill-opacity:1;stroke:none;stroke-width:0.79375;stroke-miterlimit:4;stroke-dasharray:none"
         inkscape:label="E"
         transform="translate(0,-13.236999)">
        <path
           d="m 25.359917,17.771206 h -6.482178 v 3.488168 h 5.968642 q 0.658877,0 0.978625,0.30037 0.329438,0.290681 0.329438,0.775149 0,0.484468 -0.319748,0.794527 -0.319749,0.30037 -0.988315,0.30037 h -5.968642 v 4.040461 h 6.705033 q 0.678255,0 1.017383,0.319749 0.348817,0.310059 0.348817,0.833284 0,0.503847 -0.348817,0.823596 -0.339128,0.310059 -1.017383,0.310059 h -7.819309 q -0.939868,0 -1.35651,-0.416642 Q 16,28.923654 16,27.993476 V 17.315807 q 0,-0.620119 0.184098,-1.007693 0.184098,-0.397264 0.571672,-0.571672 0.397263,-0.184098 1.007693,-0.184098 h 7.596454 q 0.687944,0 1.017383,0.310059 0.339127,0.30037 0.339127,0.794528 0,0.503846 -0.339127,0.813905 -0.329439,0.30037 -1.017383,0.30037 z"
           style="font-size:19.8438px;fill:#40ff00;fill-opacity:1;stroke:#3fff00;stroke-opacity:1"
           id="path909" />
      </g>
      <g
         aria-label="E"
         id="text83"
         style="font-style:normal;font-weight:normal;font-size:15.875px;line-height:1.25;font-family:sans-serif;fill:#ffe800;fill-opacity:1;stroke:#ffe800;stroke-width:0.794015;stroke-miterlimit:4;stroke-dasharray:none;stroke-opacity:1"
         inkscape:label="E"
         transform="translate(0,-13.236999)">
        <path
           d="m 38.859917,17.771206 h -6.482178 v 3.488168 h 5.968642 q 0.658877,0 0.978625,0.30037 0.329438,0.290681 0.329438,0.775149 0,0.484468 -0.319748,0.794527 -0.319749,0.30037 -0.988315,0.30037 h -5.968642 v 4.040461 h 6.705033 q 0.678255,0 1.017383,0.319749 0.348817,0.310059 0.348817,0.833284 0,0.503847 -0.348817,0.823596 -0.339128,0.310059 -1.017383,0.310059 h -7.819309 q -0.939868,0 -1.35651,-0.416642 Q 29.5,28.923654 29.5,27.993476 V 17.315807 q 0,-0.620119 0.184098,-1.007693 0.184098,-0.397264 0.571672,-0.571672 0.397263,-0.184098 1.007693,-0.184098 h 7.596454 q 0.687944,0 1.017383,0.310059 0.339127,0.30037 0.339127,0.794528 0,0.503846 -0.339127,0.813905 -0.329439,0.30037 -1.017383,0.30037 z"
           style="font-size:19.8438px;fill:#ffe800;fill-opacity:1;stroke:#ffe800;stroke-width:0.794015;stroke-miterlimit:4;stroke-dasharray:none;stroke-opacity:1"
           id="path912" />
      </g>
    </g>
    <g
       id="g1130"
       transform="matrix(2.299403,0,0,2.299403,-36.981518,-25.452572)">
      <path
         style="fill:#d4e9f6;fill-opacity:1;stroke:#a4d0ed;stroke-width:0.132292;stroke-linecap:butt;stroke-linejoin:miter;stroke-miterlimit:4;stroke-dasharray:none;stroke-opacity:1"
         d="m 43.286937,13.844979 c 0,0 -1.082554,-0.03407 -1.389816,-0.406302 -0.227113,-0.275132 -0.310772,-0.777574 -0.100222,-1.065579 0.172288,-0.235669 0.587008,-0.300483 0.855724,-0.186401 0.193804,0.08228 0.331949,0.537381 0.331949,0.537381 0,0 -0.312774,-0.6259 -0.193179,-0.913097 0.106728,-0.256301 0.424923,-0.412664 0.699805,-0.451666 0.148951,-0.02113 0.338668,0.01186 0.432319,0.129601 0.414929,0.521651 0.128562,1.995506 0.128562,1.995506 z"
         id="path1044-6"
         sodipodi:nodetypes="caaacaaacc" />
      <ellipse
         style="fill:#ffe900;fill-opacity:1;fill-rule:evenodd;stroke:#0195ff;stroke-width:0;stroke-linejoin:round;stroke-miterlimit:4;stroke-dasharray:none;stroke-opacity:1"
         id="ellipse1021"
         cx="43.573566"
         cy="15.709636"
         rx="3.5317149"
         ry="2.5749626" />
      <ellipse
         style="fill:#000000;fill-opacity:1;fill-rule:evenodd;stroke:#0195ff;stroke-width:0;stroke-linejoin:round;stroke-miterlimit:4;stroke-dasharray:none;stroke-opacity:1"
         id="ellipse1023"
         cx="43.20031"
         cy="15.709636"
         rx="2.7710381"
         ry="2.5749626" />
      <ellipse
         style="fill:#f2dd00;fill-opacity:1;fill-rule:evenodd;stroke:#0195ff;stroke-width:0;stroke-linejoin:round;stroke-miterlimit:4;stroke-dasharray:none;stroke-opacity:1"
         id="path999"
         cx="42.723118"
         cy="15.709636"
         rx="2.657645"
         ry="2.5749626" />
      <ellipse
         style="fill:#000000;fill-opacity:1;fill-rule:evenodd;stroke:#0195ff;stroke-width:0;stroke-linejoin:round;stroke-miterlimit:4;stroke-dasharray:none;stroke-opacity:1"
         id="ellipse1027"
         cx="43.216846"
         cy="15.709636"
         rx="2.7545016"
         ry="2.5749626" />
      <ellipse
         style="fill:#ffe900;fill-opacity:1;fill-rule:evenodd;stroke:#ffe900;stroke-width:0;stroke-linejoin:round;stroke-miterlimit:4;stroke-dasharray:none;stroke-opacity:1"
         id="ellipse1029"
         cx="42.723118"
         cy="15.733259"
         rx="2.657645"
         ry="2.5749626" />
      <path
         id="ellipse1034"
         style="fill:#000000;fill-opacity:1;fill-rule:evenodd;stroke:#0195ff;stroke-width:0;stroke-linejoin:round;stroke-miterlimit:4;stroke-dasharray:none;stroke-opacity:1"
         d="m 44.246764,13.134723 a 2.9529389,2.5483816 0 0 0 -0.419097,0.02609 2.6576448,2.5483816 0 0 1 0.124023,-0.0026 2.6576448,2.5483816 0 0 1 2.657721,2.548454 2.6576448,2.5483816 0 0 1 -2.292368,2.523906 2.9529389,2.5483816 0 0 0 2.882511,-2.547432 2.9529389,2.5483816 0 0 0 -2.95279,-2.548455 z m -2.9068,2.100443 a 2.9529389,2.5483816 0 0 0 -0.04599,0.448012 2.9529389,2.5483816 0 0 0 0,0.02352 2.6576448,2.5483816 0 0 1 0.04599,-0.471539 z" />
      <path
         style="fill:#d4e9f6;fill-opacity:1;stroke:#a4d0ed;stroke-width:0.132292;stroke-linecap:butt;stroke-linejoin:miter;stroke-miterlimit:4;stroke-dasharray:none;stroke-opacity:1"
         d="m 45.593378,13.890624 c 0,0 -0.149305,-1.055993 0.14174,-1.441034 0.285689,-0.377955 0.917043,-0.764124 1.322916,-0.519717 0.4209,0.253456 0.367419,1.016807 0.165365,1.464658 -0.07906,0.175232 -0.472469,0.330729 -0.472469,0.330729 0,0 0.503077,-0.281542 0.779576,-0.283482 0.191752,-0.0013 0.440575,0.02709 0.54334,0.188988 0.08062,0.127015 0.0511,0.335001 -0.04725,0.448847 -0.435733,0.504403 -1.937128,0.496093 -1.937128,0.496093 z"
         id="path1044"
         sodipodi:nodetypes="caaacaaacc" />
      <ellipse
         style="fill:#000000;fill-opacity:1;fill-rule:evenodd;stroke:#000000;stroke-width:0;stroke-linejoin:round;stroke-miterlimit:4;stroke-dasharray:none;stroke-opacity:1"
         id="path1070-7"
         cx="41.263477"
         cy="15.193194"
         rx="0.71288049"
         ry="0.67951375" />
      <ellipse
         style="fill:#000000;fill-opacity:1;fill-rule:evenodd;stroke:#000000;stroke-width:0;stroke-linejoin:round;stroke-miterlimit:4;stroke-dasharray:none;stroke-opacity:1"
         id="ellipse1101"
         cx="43.046215"
         cy="15.193194"
         rx="0.71288049"
         ry="0.67951375" />
      <ellipse
         style="fill:#ffffff;fill-opacity:1;fill-rule:evenodd;stroke:#000000;stroke-width:0;stroke-linejoin:round;stroke-miterlimit:4;stroke-dasharray:none;stroke-opacity:1"
         id="ellipse1103"
         cx="41.035461"
         cy="15.000259"
         rx="0.32116386"
         ry="0.30613163" />
      <ellipse
         style="fill:#ffffff;fill-opacity:1;fill-rule:evenodd;stroke:#000000;stroke-width:0;stroke-linejoin:round;stroke-miterlimit:4;stroke-dasharray:none;stroke-opacity:1"
         id="ellipse1105"
         cx="42.786789"
         cy="15.000259"
         rx="0.32116386"
         ry="0.30613163" />
      <path
         style="fill:#000000;fill-opacity:1;stroke:#000000;stroke-width:0;stroke-linecap:butt;stroke-linejoin:miter;stroke-miterlimit:4;stroke-dasharray:none;stroke-opacity:1"
         d="m 47.169731,16.066239 0.362484,-0.596345 -0.53788,-0.549573 z"
         id="path1107"
         sodipodi:nodetypes="cccc" />
      <ellipse
         style="fill:#ff90ff;fill-opacity:1;fill-rule:evenodd;stroke:#000000;stroke-width:0;stroke-linejoin:round;stroke-miterlimit:4;stroke-dasharray:none;stroke-opacity:1"
         id="ellipse1111"
         cx="40.565746"
         cy="16.135771"
         rx="0.28951615"
         ry="0.27596518" />
      <ellipse
         style="fill:#ff90ff;fill-opacity:1;fill-rule:evenodd;stroke:#000000;stroke-width:0;stroke-linejoin:round;stroke-miterlimit:4;stroke-dasharray:none;stroke-opacity:1"
         id="ellipse1113"
         cx="43.945766"
         cy="16.135771"
         rx="0.28951615"
         ry="0.27596518" />
    </g>
  </g>
</svg>
